<svg width="1746" height="353" viewBox="0 0 1746 353" fill="none" xmlns="http://www.w3.org/2000/svg">
<path d="M558.56 273.13C540.92 273.13 525.53 270.25 512.39 264.49C499.25 258.55 488.36 250.63 479.72 240.73C471.26 230.83 464.96 219.85 460.82 207.79C456.68 195.73 454.61 183.67 454.61 171.61V165.67C454.61 153.25 456.68 141.1 460.82 129.22C464.96 117.34 471.17 106.54 479.45 96.82C487.91 87.1 498.35 79.36 510.77 73.6C523.37 67.84 537.86 64.96 554.24 64.96C572.06 64.96 587.81 68.29 601.49 74.95C615.17 81.43 626.15 90.52 634.43 102.22C642.71 113.74 647.48 127.15 648.74 142.45H604.46C603.38 135.25 600.5 128.95 595.82 123.55C591.32 118.15 585.47 113.92 578.27 110.86C571.25 107.8 563.24 106.27 554.24 106.27C545.6 106.27 537.86 107.8 531.02 110.86C524.36 113.92 518.6 118.24 513.74 123.82C509.06 129.4 505.46 136.06 502.94 143.8C500.6 151.36 499.43 159.73 499.43 168.91C499.43 178.45 500.69 187.18 503.21 195.1C505.91 202.84 509.78 209.59 514.82 215.35C519.86 220.93 526.07 225.25 533.45 228.31C541.01 231.37 549.38 232.9 558.56 232.9C570.8 232.9 581.42 230.38 590.42 225.34C599.42 220.3 605.9 213.64 609.86 205.36L604.46 235.6V188.62H645.23V230.74C636.77 244.42 625.07 254.95 610.13 262.33C595.37 269.53 578.18 273.13 558.56 273.13ZM552.89 197.26V165.4H661.43V197.26H552.89ZM687.622 268V120.04H721.912V183.49H721.102C721.102 162.61 725.512 146.5 734.332 135.16C743.332 123.82 756.292 118.15 773.212 118.15H778.882V155.41H768.082C756.202 155.41 747.022 158.65 740.542 165.13C734.062 171.43 730.822 180.61 730.822 192.67V268H687.622ZM889.58 268V224.26H882.29V176.74C882.29 169.18 880.49 163.51 876.89 159.73C873.29 155.95 867.53 154.06 859.61 154.06C855.65 154.06 850.43 154.15 843.95 154.33C837.47 154.51 830.81 154.78 823.97 155.14C817.13 155.5 810.92 155.86 805.34 156.22V119.77C809.48 119.41 814.34 119.05 819.92 118.69C825.5 118.33 831.26 118.06 837.2 117.88C843.14 117.7 848.72 117.61 853.94 117.61C869.06 117.61 881.75 119.77 892.01 124.09C902.45 128.41 910.37 134.98 915.77 143.8C921.17 152.44 923.87 163.6 923.87 177.28V268H889.58ZM842.33 271.78C831.71 271.78 822.35 269.89 814.25 266.11C806.33 262.33 800.12 256.93 795.62 249.91C791.12 242.71 788.87 234.16 788.87 224.26C788.87 213.46 791.66 204.64 797.24 197.8C802.82 190.78 810.65 185.65 820.73 182.41C830.81 178.99 842.42 177.28 855.56 177.28H887.15V201.31H855.29C847.73 201.31 841.88 203.2 837.74 206.98C833.78 210.58 831.8 215.53 831.8 221.83C831.8 227.77 833.78 232.63 837.74 236.41C841.88 240.01 847.73 241.81 855.29 241.81C860.15 241.81 864.47 241 868.25 239.38C872.21 237.58 875.45 234.61 877.97 230.47C880.49 226.33 881.93 220.57 882.29 213.19L892.55 223.99C891.65 234.25 889.13 242.89 884.99 249.91C881.03 256.93 875.45 262.33 868.25 266.11C861.23 269.89 852.59 271.78 842.33 271.78ZM960.523 268V120.04H994.813V183.76H992.383C992.383 168.64 994.273 156.04 998.053 145.96C1001.83 135.88 1007.5 128.32 1015.06 123.28C1022.62 118.06 1031.89 115.45 1042.87 115.45H1044.76C1055.92 115.45 1065.19 118.06 1072.57 123.28C1080.13 128.32 1085.8 135.88 1089.58 145.96C1093.54 156.04 1095.52 168.64 1095.52 183.76H1084.99C1084.99 168.64 1086.88 156.04 1090.66 145.96C1094.62 135.88 1100.38 128.32 1107.94 123.28C1115.5 118.06 1124.77 115.45 1135.75 115.45H1137.64C1148.8 115.45 1158.16 118.06 1165.72 123.28C1173.46 128.32 1179.31 135.88 1183.27 145.96C1187.23 156.04 1189.21 168.64 1189.21 183.76V268H1146.01V181.33C1146.01 173.23 1143.85 166.66 1139.53 161.62C1135.39 156.58 1129.45 154.06 1121.71 154.06C1113.97 154.06 1107.85 156.67 1103.35 161.89C1098.85 166.93 1096.6 173.68 1096.6 182.14V268H1053.13V181.33C1053.13 173.23 1050.97 166.66 1046.65 161.62C1042.51 156.58 1036.66 154.06 1029.1 154.06C1021.18 154.06 1014.97 156.67 1010.47 161.89C1005.97 166.93 1003.72 173.68 1003.72 182.14V268H960.523ZM1226.04 268V120.04H1260.33V183.76H1257.9C1257.9 168.64 1259.79 156.04 1263.57 145.96C1267.35 135.88 1273.02 128.32 1280.58 123.28C1288.14 118.06 1297.41 115.45 1308.39 115.45H1310.28C1321.44 115.45 1330.71 118.06 1338.09 123.28C1345.65 128.32 1351.32 135.88 1355.1 145.96C1359.06 156.04 1361.04 168.64 1361.04 183.76H1350.51C1350.51 168.64 1352.4 156.04 1356.18 145.96C1360.14 135.88 1365.9 128.32 1373.46 123.28C1381.02 118.06 1390.29 115.45 1401.27 115.45H1403.16C1414.32 115.45 1423.68 118.06 1431.24 123.28C1438.98 128.32 1444.83 135.88 1448.79 145.96C1452.75 156.04 1454.73 168.64 1454.73 183.76V268H1411.53V181.33C1411.53 173.23 1409.37 166.66 1405.05 161.62C1400.91 156.58 1394.97 154.06 1387.23 154.06C1379.49 154.06 1373.37 156.67 1368.87 161.89C1364.37 166.93 1362.12 173.68 1362.12 182.14V268H1318.65V181.33C1318.65 173.23 1316.49 166.66 1312.17 161.62C1308.03 156.58 1302.18 154.06 1294.62 154.06C1286.7 154.06 1280.49 156.67 1275.99 161.89C1271.49 166.93 1269.24 173.68 1269.24 182.14V268H1226.04ZM1580.93 268V224.26H1573.64V176.74C1573.64 169.18 1571.84 163.51 1568.24 159.73C1564.64 155.95 1558.88 154.06 1550.96 154.06C1547 154.06 1541.78 154.15 1535.3 154.33C1528.82 154.51 1522.16 154.78 1515.32 155.14C1508.48 155.5 1502.27 155.86 1496.69 156.22V119.77C1500.83 119.41 1505.69 119.05 1511.27 118.69C1516.85 118.33 1522.61 118.06 1528.55 117.88C1534.49 117.7 1540.07 117.61 1545.29 117.61C1560.41 117.61 1573.1 119.77 1583.36 124.09C1593.8 128.41 1601.72 134.98 1607.12 143.8C1612.52 152.44 1615.22 163.6 1615.22 177.28V268H1580.93ZM1533.68 271.78C1523.06 271.78 1513.7 269.89 1505.6 266.11C1497.68 262.33 1491.47 256.93 1486.97 249.91C1482.47 242.71 1480.22 234.16 1480.22 224.26C1480.22 213.46 1483.01 204.64 1488.59 197.8C1494.17 190.78 1502 185.65 1512.08 182.41C1522.16 178.99 1533.77 177.28 1546.91 177.28H1578.5V201.31H1546.64C1539.08 201.31 1533.23 203.2 1529.09 206.98C1525.13 210.58 1523.15 215.53 1523.15 221.83C1523.15 227.77 1525.13 232.63 1529.09 236.41C1533.23 240.01 1539.08 241.81 1546.64 241.81C1551.5 241.81 1555.82 241 1559.6 239.38C1563.56 237.58 1566.8 234.61 1569.32 230.47C1571.84 226.33 1573.28 220.57 1573.64 213.19L1583.9 223.99C1583 234.25 1580.48 242.89 1576.34 249.91C1572.38 256.93 1566.8 262.33 1559.6 266.11C1552.58 269.89 1543.94 271.78 1533.68 271.78ZM1651.87 268V120.04H1686.16V183.49H1685.35C1685.35 162.61 1689.76 146.5 1698.58 135.16C1707.58 123.82 1720.54 118.15 1737.46 118.15H1743.13V155.41H1732.33C1720.45 155.41 1711.27 158.65 1704.79 165.13C1698.31 171.43 1695.07 180.61 1695.07 192.67V268H1651.87Z" fill="white"/>
<g filter="url(#filter0_d_133_30)">
<path d="M263.24 232.8V184.92L340.8 61.72L376.36 84.96L310 190.52L313.92 196.4H436.28V232.8H263.24ZM370.48 272V124.72H412.76V272H370.48Z" fill="#008751"/>
</g>
<g filter="url(#filter1_d_133_30)">
<path d="M213.8 277.32C197.933 277.32 184.12 274.427 172.36 268.64C160.787 262.667 151.92 254.64 145.76 244.56C139.6 234.48 136.52 223.093 136.52 210.4H180.76C180.76 218.987 183.653 225.987 189.44 231.4C195.227 236.627 203.347 239.24 213.8 239.24C220.707 239.24 226.587 237.933 231.44 235.32C236.293 232.707 240.027 229.16 242.64 224.68C245.253 220.013 246.56 214.787 246.56 209C246.56 200.04 243.667 192.667 237.88 186.88C232.28 181.093 224.253 178.2 213.8 178.2C208.2 178.2 203.253 179.04 198.96 180.72C194.853 182.4 191.307 184.453 188.32 186.88L167.6 151.88L229.48 111.56L226.96 106.8H144.92V67.6H282.68V110.16L211.28 155.52L188.88 149.36C192.613 148.24 196.533 147.4 200.64 146.84C204.933 146.093 209.507 145.72 214.36 145.72C230.227 145.72 243.853 148.333 255.24 153.56C266.627 158.787 275.4 166.16 281.56 175.68C287.907 185.013 291.08 195.933 291.08 208.44V211.8C291.08 224.307 287.907 235.507 281.56 245.4C275.4 255.293 266.533 263.133 254.96 268.92C243.573 274.52 229.853 277.32 213.8 277.32Z" fill="#008751"/>
</g>
<g filter="url(#filter2_d_133_30)">
<path d="M16.8 272V230C16.8 221.227 18.2 213.573 21 207.04C23.9867 200.507 28.6533 194.72 35 189.68C41.3467 184.453 49.7467 179.6 60.2 175.12L93.24 160.84C101.64 157.293 107.8 152.907 111.72 147.68C115.827 142.453 117.88 135.827 117.88 127.8C117.88 119.587 115.36 112.867 110.32 107.64C105.28 102.413 97.9067 99.8 88.2 99.8C78.4933 99.8 71.12 102.507 66.08 107.92C61.04 113.333 58.52 120.613 58.52 129.76H14C14 116.88 16.8 105.307 22.4 95.04C28 84.5867 36.3067 76.3733 47.32 70.4C58.3333 64.4267 71.96 61.44 88.2 61.44C104.44 61.44 117.973 64.3333 128.8 70.12C139.813 75.9067 148.12 83.6533 153.72 93.36C159.507 103.067 162.4 113.987 162.4 126.12V129.48C162.4 145.16 158.107 158.133 149.52 168.4C140.933 178.48 127.68 187.44 109.76 195.28L77 209.56C71.4 211.987 67.3867 214.507 64.96 217.12C62.72 219.733 61.6 223.28 61.6 227.76V241.76L50.68 232.52H162.68V272H16.8Z" fill="#008751"/>
</g>
<defs>
<filter id="filter0_d_133_30" x="263.238" y="61.7202" width="181.043" height="218.28" filterUnits="userSpaceOnUse" color-interpolation-filters="sRGB">
<feFlood flood-opacity="0" result="BackgroundImageFix"/>
<feColorMatrix in="SourceAlpha" type="matrix" values="0 0 0 0 0 0 0 0 0 0 0 0 0 0 0 0 0 0 127 0" result="hardAlpha"/>
<feOffset dx="4" dy="4"/>
<feGaussianBlur stdDeviation="2"/>
<feComposite in2="hardAlpha" operator="out"/>
<feColorMatrix type="matrix" values="0 0 0 0 0 0 0 0 0 0 0 0 0 0 0 0 0 0 0.8 0"/>
<feBlend mode="normal" in2="BackgroundImageFix" result="effect1_dropShadow_133_30"/>
<feBlend mode="normal" in="SourceGraphic" in2="effect1_dropShadow_133_30" result="shape"/>
</filter>
<filter id="filter1_d_133_30" x="136.52" y="67.6001" width="162.559" height="217.72" filterUnits="userSpaceOnUse" color-interpolation-filters="sRGB">
<feFlood flood-opacity="0" result="BackgroundImageFix"/>
<feColorMatrix in="SourceAlpha" type="matrix" values="0 0 0 0 0 0 0 0 0 0 0 0 0 0 0 0 0 0 127 0" result="hardAlpha"/>
<feOffset dx="4" dy="4"/>
<feGaussianBlur stdDeviation="2"/>
<feComposite in2="hardAlpha" operator="out"/>
<feColorMatrix type="matrix" values="0 0 0 0 0 0 0 0 0 0 0 0 0 0 0 0 0 0 0.8 0"/>
<feBlend mode="normal" in2="BackgroundImageFix" result="effect1_dropShadow_133_30"/>
<feBlend mode="normal" in="SourceGraphic" in2="effect1_dropShadow_133_30" result="shape"/>
</filter>
<filter id="filter2_d_133_30" x="14" y="61.4399" width="156.68" height="218.56" filterUnits="userSpaceOnUse" color-interpolation-filters="sRGB">
<feFlood flood-opacity="0" result="BackgroundImageFix"/>
<feColorMatrix in="SourceAlpha" type="matrix" values="0 0 0 0 0 0 0 0 0 0 0 0 0 0 0 0 0 0 127 0" result="hardAlpha"/>
<feOffset dx="4" dy="4"/>
<feGaussianBlur stdDeviation="2"/>
<feComposite in2="hardAlpha" operator="out"/>
<feColorMatrix type="matrix" values="0 0 0 0 0 0 0 0 0 0 0 0 0 0 0 0 0 0 0.8 0"/>
<feBlend mode="normal" in2="BackgroundImageFix" result="effect1_dropShadow_133_30"/>
<feBlend mode="normal" in="SourceGraphic" in2="effect1_dropShadow_133_30" result="shape"/>
</filter>
</defs>
</svg>
